# xmcd CD database file
#
# Track frame offsets:
#	150
#	15182
#	32742
#	47753
#	68695
#	83953
#	100744
#	119405
#	132121
#	151120
#	164003
#	174524
#
# Disc length: 2566 seconds
#
# Revision: 0
# Processed by: cddbd v1.5.2PL0 Copyright (c) Steve Scherf et al.
# Submitted via: CDex 1.70beta2
#
DISCID=8d0a040c
DTITLE=Verge, Dale - Cdn. - NS - Dale Verge
DYEAR=1900
DGENRE=Country
TTITLE0=Six Days On the Road
TTITLE1=Teach Me To Forget
TTITLE2=All My X's
TTITLE3=Sliver Wings
TTITLE4=If We're Not Back In Love
TTITLE5=A Bridge I'll Have To Burn
TTITLE6=Making Plans
TTITLE7=Every Second, Every Minute
TTITLE8=Walking Piece of Heaven
TTITLE9=Close Up the Honky Tonks
TTITLE10=Even Stevens
TTITLE11=Slippers With Wings
EXTD=
EXTT0=
EXTT1=
EXTT2=
EXTT3=
EXTT4=
EXTT5=
EXTT6=
EXTT7=
EXTT8=
EXTT9=
EXTT10=
EXTT11=
PLAYORDER=
